HIERARCHY
ROOT root
{
	OFFSET 0.000000 0.000000 0.000000
	CHANNELS 6 Xposition Yposition Zposition Zrotation Yrotation Xrotation
	JOINT lhip
	{
		OFFSET 0.058581 -0.082280 -0.017664
		CHANNELS 3 Zrotation Yrotation Xrotation
		JOINT lknee
		{
			OFFSET 0.043451 -0.386469 0.008037
			CHANNELS 3 Zrotation Yrotation Xrotation
			JOINT lankle
			{
				OFFSET -0.014790 -0.426874 -0.037428
				CHANNELS 3 Zrotation Yrotation Xrotation
				JOINT ltoe
				{
					OFFSET 0.041054 -0.060286 0.122042
					CHANNELS 3 Zrotation Yrotation Xrotation
					End Site
					{
						OFFSET 0.000000 0.000000 0.000000
					}
				}
			}
		}
	}
	JOINT rhip
	{
		OFFSET -0.060310 -0.090513 -0.013543
		CHANNELS 3 Zrotation Yrotation Xrotation
		JOINT rknee
		{
			OFFSET -0.043257 -0.383688 -0.004843
			CHANNELS 3 Zrotation Yrotation Xrotation
			JOINT rankle
			{
				OFFSET 0.019056 -0.420046 -0.034562
				CHANNELS 3 Zrotation Yrotation Xrotation
				JOINT rtoe
				{
					OFFSET -0.034840 -0.062106 0.130323
					CHANNELS 3 Zrotation Yrotation Xrotation
					End Site
					{
						OFFSET 0.000000 0.000000 0.000000
					}
				}
			}
		}
	}
	JOINT lowerback
	{
		OFFSET 0.004439 0.124404 -0.038385
		CHANNELS 3 Zrotation Yrotation Xrotation
		JOINT upperback
		{
			OFFSET 0.004488 0.137956 0.026820
			CHANNELS 3 Zrotation Yrotation Xrotation
			JOINT chest
			{
				OFFSET -0.002265 0.056032 0.002855
				CHANNELS 3 Zrotation Yrotation Xrotation
				JOINT lowerneck
				{
					OFFSET -0.013390 0.211636 -0.033468
					CHANNELS 3 Zrotation Yrotation Xrotation
					JOINT upperneck
					{
						OFFSET 0.010113 0.088937 0.050410
						CHANNELS 3 Zrotation Yrotation Xrotation
						End Site
						{
							OFFSET 0.000000 0.000000 0.000000
						}
					}
				}
				JOINT lclavicle
				{
					OFFSET 0.071702 0.114000 -0.018898
					CHANNELS 3 Zrotation Yrotation Xrotation
					JOINT lshoulder
					{
						OFFSET 0.122921 0.045205 -0.019046
						CHANNELS 3 Zrotation Yrotation Xrotation
						JOINT lelbow
						{
							OFFSET 0.255332 -0.015649 -0.022946
							CHANNELS 3 Zrotation Yrotation Xrotation
							JOINT lwrist
							{
								OFFSET 0.265709 0.012698 -0.007375
								CHANNELS 3 Zrotation Yrotation Xrotation
								End Site
								{
									OFFSET 0.000000 0.000000 0.000000
								}
							}
						}
					}
				}
				JOINT rclavicle
				{
					OFFSET -0.082954 0.112472 -0.023707
					CHANNELS 3 Zrotation Yrotation Xrotation
					JOINT rshoulder
					{
						OFFSET -0.113228 0.046853 -0.008472
						CHANNELS 3 Zrotation Yrotation Xrotation
						JOINT relbow
						{
							OFFSET -0.260127 -0.014369 -0.031269
							CHANNELS 3 Zrotation Yrotation Xrotation
							JOINT rwrist
							{
								OFFSET -0.269108 0.006794 -0.006027
								CHANNELS 3 Zrotation Yrotation Xrotation
								End Site
								{
									OFFSET 0.000000 0.000000 0.000000
								}
							}
						}
					}
				}
			}
		}
	}
}
MOTION
Frames: 8
Frame Time: 0.033333
-1.946074 0.209058 1.013405 -169.646128 -6.381536 82.643831 4.823320 5.439420 -7.213957 0.098816 5.204040 13.621579 -2.049859 12.919087 -9.232009 0.000000 -0.000000 0.000000 -0.784614 -6.397612 6.669593 -4.196676 1.975198 2.942537 1.926957 -11.183528 -9.060449 0.000000 -0.000000 0.000000 -2.582897 3.130912 11.282935 4.110817 -8.504183 -5.694740 3.666995 -1.800774 -0.028043 6.424988 1.572815 -7.201034 4.481073 -9.461403 12.154222 2.876685 -28.001238 -12.059076 -18.570571 -35.878740 -5.201754 2.295672 -13.506843 7.593051 -7.064162 -11.825376 11.535463 2.530939 25.510300 -9.397243 14.545372 37.636089 -8.922389 -11.390426 18.719497 0.996413 7.395717 3.980986 7.390732 
-1.947711 0.225326 1.013782 -170.663510 -6.276633 82.523865 4.070841 4.367962 -9.209637 0.332565 4.116336 10.621777 -2.149989 12.359978 -9.721994 0.000000 -0.000000 0.000000 -0.917825 -6.573108 7.707357 -3.846169 2.227529 3.508466 2.243619 -11.126104 -9.995560 0.000000 -0.000000 0.000000 -2.700065 3.061774 10.794846 4.430532 -9.087070 -5.227471 3.694613 -1.073324 0.397124 6.509872 2.239225 -7.347738 4.467408 -9.686171 11.573408 2.918151 -27.739876 -12.268736 -18.826977 -35.897789 -4.737688 2.653708 -13.377174 7.732425 -7.446934 -12.030151 11.166660 2.882501 25.575385 -9.526764 14.133031 37.993603 -9.091899 -11.441844 18.393832 1.366779 7.787938 4.170540 7.630448 
-1.949653 0.240634 1.014739 -172.134297 -6.185343 82.493389 3.413186 3.440287 -10.917285 0.275049 2.908289 7.681792 -1.988244 11.574205 -9.717164 0.000000 -0.000000 0.000000 -0.814553 -6.618871 8.337156 -3.907104 2.766065 4.402568 2.600111 -10.845912 -9.734561 0.000000 -0.000000 0.000000 -2.630327 3.577421 11.186901 4.411387 -9.015925 -5.562747 3.738297 -0.977313 0.278705 6.555591 2.327393 -7.438430 4.723671 -9.911457 11.591472 2.833275 -27.764565 -12.277362 -19.025190 -35.729771 -4.447843 2.616627 -13.391450 7.569772 -7.102978 -12.455742 11.301646 2.742129 25.667361 -9.410957 14.462729 37.750726 -8.932744 -11.701179 18.135326 1.218505 7.876835 4.342568 7.762731 
-1.951911 0.256656 1.015899 -173.625451 -6.014735 82.327336 2.790652 2.611289 -12.121762 0.671824 1.050617 5.018360 -2.093000 10.882675 -9.965210 0.000000 -0.000000 0.000000 -0.955548 -6.637611 9.465646 -3.765239 3.626848 4.697992 3.141244 -10.513164 -9.372831 0.000000 -0.000000 0.000000 -2.398879 3.862759 11.701486 4.300272 -8.859074 -6.047148 3.610142 -0.885288 0.353252 6.666824 2.349729 -7.660567 4.550181 -10.291934 11.948259 2.521204 -27.268428 -12.603807 -19.205508 -35.743476 -3.950287 2.124685 -13.437023 7.551664 -6.780795 -12.523503 11.690984 3.209631 25.445260 -9.566670 14.458171 37.920855 -8.573269 -11.102077 18.013226 1.081305 7.603858 4.315368 8.738633 
-1.954619 0.272290 1.017089 -175.191166 -5.629649 82.198493 2.518177 1.882780 -13.236990 0.914319 0.565900 2.882438 -2.234660 10.867992 -10.362374 0.000000 -0.000000 0.000000 -1.591385 -6.725403 10.472062 -2.674575 4.268923 5.272218 3.718244 -9.929801 -8.927465 0.000000 -0.000000 0.000000 -2.056070 4.346091 11.390050 4.194355 -9.040712 -5.557144 3.512808 -0.607258 0.580668 6.589583 2.471164 -7.617457 4.465102 -10.279208 11.637505 2.386219 -27.332724 -12.501459 -19.012728 -35.580641 -3.774811 2.210091 -13.274940 7.447133 -7.165899 -12.662457 11.541918 3.216370 25.706475 -9.325353 13.809877 37.786724 -8.610189 -10.810356 17.658432 1.705847 8.288904 4.500591 8.570556 
-1.957028 0.287901 1.017709 -176.855018 -5.189221 82.328736 2.427330 1.408262 -14.541424 1.283140 0.890494 1.338047 -2.034668 10.964807 -10.960733 0.000000 -0.000000 0.000000 -1.397409 -6.801166 11.219194 -3.000204 5.097113 5.670829 4.638989 -9.148705 -9.162263 0.000000 -0.000000 0.000000 -2.023925 4.918515 11.429030 4.305026 -8.858710 -5.745375 3.639100 -0.584208 0.562441 6.571636 2.646811 -7.259132 4.532339 -10.098810 11.353810 2.342480 -27.190494 -12.699693 -19.481622 -35.535765 -3.372652 2.311895 -12.929146 7.422999 -6.890286 -12.884313 12.018716 2.928652 25.539291 -9.498550 13.787060 37.839550 -8.616934 -10.299418 17.598953 2.149185 8.333541 4.489416 8.839114 
-1.960725 0.303005 1.018072 -178.968831 -4.835623 82.443927 2.253355 1.116913 -15.329551 1.816641 1.563537 -0.087857 -1.942114 11.643014 -11.633519 0.000000 -0.000000 0.000000 -2.005046 -6.474643 12.224300 -2.399547 5.655724 5.669626 5.616595 -7.995187 -9.466526 0.000000 -0.000000 0.000000 -1.645013 5.364912 11.669135 3.987977 -8.516112 -6.128266 3.500430 -0.366675 0.679209 6.602832 2.894303 -7.266300 4.486487 -10.173934 11.700489 2.196287 -26.949389 -12.941774 -19.307069 -35.253465 -3.382608 2.010240 -13.122872 7.411468 -6.940613 -13.178497 12.504882 2.833487 25.594363 -9.520771 13.649470 38.092904 -8.652258 -10.018403 17.184714 2.317939 7.850114 4.795355 9.735576 
-1.963344 0.320267 1.016761 179.300320 -4.335653 82.431261 2.412732 1.175821 -15.933185 1.939233 1.863421 -0.473583 -1.832146 11.517235 -12.003051 0.000000 -0.000000 0.000000 -2.699380 -7.138062 13.658252 -1.704740 6.330746 5.231677 6.097586 -6.611043 -9.322790 0.000000 -0.000000 0.000000 -1.405571 5.972634 11.683474 3.753725 -8.546758 -6.311739 3.401575 -0.360218 0.819204 6.844160 2.935465 -7.141185 4.325545 -10.176952 11.850808 2.140567 -26.794736 -13.242592 -19.359719 -35.291613 -3.351391 2.358423 -12.350284 7.397272 -7.166621 -13.704590 13.379879 2.766207 25.604172 -9.539599 13.501186 38.474182 -8.792901 -9.582145 17.003075 2.907664 7.901848 4.970186 10.273326 
